<svg width="40" height="36" viewBox="0 0 40 36" fill="none" xmlns="http://www.w3.org/2000/svg">
<path d="M32.5 4.25C32.5 3.25544 32.8951 2.30161 33.5984 1.59835C34.3016 0.895088 35.2554 0.5 36.25 0.5C37.2446 0.5 38.1984 0.895088 38.9016 1.59835C39.6049 2.30161 40 3.25544 40 4.25V31.75C40 32.7446 39.6049 33.6984 38.9016 34.4017C38.1984 35.1049 37.2446 35.5 36.25 35.5C35.2554 35.5 34.3016 35.1049 33.5984 34.4017C32.8951 33.6984 32.5 32.7446 32.5 31.75V31.215C27.095 28.1125 21.275 26.6075 15.22 26.0075L16.2325 32.7875C16.3005 33.1487 16.288 33.5205 16.1959 33.8763C16.1039 34.2321 15.9345 34.5633 15.6998 34.8461C15.4651 35.129 15.171 35.3567 14.8383 35.5129C14.5056 35.6692 14.1425 35.7501 13.775 35.75H12.405C11.9191 35.75 11.4437 35.6083 11.0369 35.3423C10.6302 35.0764 10.3099 34.6977 10.115 34.2525L5.49 25.5275C5.32167 25.5248 5.15334 25.5223 4.985 25.52C3.66091 25.5069 2.3953 24.9726 1.46226 24.0331C0.529226 23.0935 0.00387961 21.8242 0 20.5L0 15.5C0.00446196 14.1757 0.528925 12.9062 1.46041 11.9649C2.39189 11.0236 3.65585 10.4858 4.98 10.4675C7.05006 10.4394 9.11952 10.3769 11.1875 10.28C18.795 9.895 26.5575 8.1575 32.5 4.7825V4.25ZM35 4.25V31.75C35 32.0815 35.1317 32.3995 35.3661 32.6339C35.6005 32.8683 35.9185 33 36.25 33C36.5815 33 36.8995 32.8683 37.1339 32.6339C37.3683 32.3995 37.5 32.0815 37.5 31.75V4.25C37.5 3.91848 37.3683 3.60054 37.1339 3.36612C36.8995 3.1317 36.5815 3 36.25 3C35.9185 3 35.6005 3.1317 35.3661 3.36612C35.1317 3.60054 35 3.91848 35 4.25ZM32.5 7.625C26.64 10.6375 19.4775 12.23 12.5 12.7075V23.29C12.95 23.315 13.3975 23.345 13.8425 23.38C20.2625 23.8525 26.575 25.24 32.5 28.3625V7.625ZM10 23.1625V12.8375C8.3405 12.8982 6.68041 12.9416 5.02 12.9675C4.35193 12.9753 3.71362 13.2451 3.24236 13.7187C2.7711 14.1923 2.50454 14.8319 2.5 15.5V20.5C2.5 21.875 3.62 23.005 5.015 23.0225C6.67732 23.0418 8.33922 23.0884 10 23.1625ZM8.3575 25.6L12.38 33.1925L12.405 33.2525H13.775L13.77 33.2175L12.6625 25.8025C11.2284 25.716 9.79331 25.6476 8.3575 25.5975V25.6Z" fill="#EAB308"/>
</svg>
