<svg width="40" height="34" viewBox="0 0 40 34" fill="none" xmlns="http://www.w3.org/2000/svg">
<path d="M30 0.360962C31.3261 0.360962 32.5979 0.858455 33.5355 1.744C34.4732 2.62954 35 3.83059 35 5.08294C36.3261 5.08294 37.5979 5.58043 38.5355 6.46597C39.4732 7.35152 40 8.55257 40 9.80492V28.6928C40 29.9452 39.4732 31.1462 38.5355 32.0318C37.5979 32.9173 36.3261 33.4148 35 33.4148H10C8.67392 33.4148 7.40215 32.9173 6.46447 32.0318C5.52678 31.1462 5 29.9452 5 28.6928C3.67392 28.6928 2.40215 28.1953 1.46447 27.3098C0.526784 26.4242 0 25.2232 0 23.9708V5.08294C0 3.83059 0.526784 2.62954 1.46447 1.744C2.40215 0.858455 3.67392 0.360962 5 0.360962H30ZM5 26.3318V9.80492C5 8.55257 5.52678 7.35152 6.46447 6.46597C7.40215 5.58043 8.67392 5.08294 10 5.08294H32.5C32.5 4.45677 32.2366 3.85624 31.7678 3.41347C31.2989 2.9707 30.663 2.72195 30 2.72195H5C4.33696 2.72195 3.70107 2.9707 3.23223 3.41347C2.76339 3.85624 2.5 4.45677 2.5 5.08294V23.9708C2.5 24.597 2.76339 25.1975 3.23223 25.6403C3.70107 26.0831 4.33696 26.3318 5 26.3318ZM7.5 16.8879V28.6928C7.5 29.319 7.76339 29.9195 8.23223 30.3623C8.70107 30.8051 9.33696 31.0538 10 31.0538H35C35.663 31.0538 36.2989 30.8051 36.7678 30.3623C37.2366 29.9195 37.5 29.319 37.5 28.6928V16.8879H7.5ZM37.5 14.5269V9.80492C37.5 9.17874 37.2366 8.57822 36.7678 8.13545C36.2989 7.69267 35.663 7.44393 35 7.44393H10C9.33696 7.44393 8.70107 7.69267 8.23223 8.13545C7.76339 8.57822 7.5 9.17874 7.5 9.80492V14.5269H37.5Z" fill="#EAB308"/>
</svg>
