<svg width="40" height="40" viewBox="0 0 40 40" fill="none" xmlns="http://www.w3.org/2000/svg">
<g clip-path="url(#clip0_3_81)">
<path fill-rule="evenodd" clip-rule="evenodd" d="M0 26.25C0 25.2554 0.395088 24.3016 1.09835 23.5983C1.80161 22.8951 2.75544 22.5 3.75 22.5H6.25C7.24456 22.5 8.19839 22.8951 8.90165 23.5983C9.60491 24.3016 10 25.2554 10 26.25V28.75C10 29.7446 9.60491 30.6984 8.90165 31.4017C8.19839 32.1049 7.24456 32.5 6.25 32.5H3.75C2.75544 32.5 1.80161 32.1049 1.09835 31.4017C0.395088 30.6984 0 29.7446 0 28.75L0 26.25ZM3.75 25C3.41848 25 3.10054 25.1317 2.86612 25.3661C2.6317 25.6005 2.5 25.9185 2.5 26.25V28.75C2.5 29.0815 2.6317 29.3995 2.86612 29.6339C3.10054 29.8683 3.41848 30 3.75 30H6.25C6.58152 30 6.89946 29.8683 7.13388 29.6339C7.3683 29.3995 7.5 29.0815 7.5 28.75V26.25C7.5 25.9185 7.3683 25.6005 7.13388 25.3661C6.89946 25.1317 6.58152 25 6.25 25H3.75ZM30 26.25C30 25.2554 30.3951 24.3016 31.0983 23.5983C31.8016 22.8951 32.7554 22.5 33.75 22.5H36.25C37.2446 22.5 38.1984 22.8951 38.9016 23.5983C39.6049 24.3016 40 25.2554 40 26.25V28.75C40 29.7446 39.6049 30.6984 38.9016 31.4017C38.1984 32.1049 37.2446 32.5 36.25 32.5H33.75C32.7554 32.5 31.8016 32.1049 31.0983 31.4017C30.3951 30.6984 30 29.7446 30 28.75V26.25ZM33.75 25C33.4185 25 33.1005 25.1317 32.8661 25.3661C32.6317 25.6005 32.5 25.9185 32.5 26.25V28.75C32.5 29.0815 32.6317 29.3995 32.8661 29.6339C33.1005 29.8683 33.4185 30 33.75 30H36.25C36.5815 30 36.8995 29.8683 37.1339 29.6339C37.3683 29.3995 37.5 29.0815 37.5 28.75V26.25C37.5 25.9185 37.3683 25.6005 37.1339 25.3661C36.8995 25.1317 36.5815 25 36.25 25H33.75ZM15 11.25C15 10.2554 15.3951 9.30161 16.0983 8.59835C16.8016 7.89509 17.7554 7.5 18.75 7.5H21.25C22.2446 7.5 23.1984 7.89509 23.9017 8.59835C24.6049 9.30161 25 10.2554 25 11.25V13.75C25 14.7446 24.6049 15.6984 23.9017 16.4017C23.1984 17.1049 22.2446 17.5 21.25 17.5H18.75C17.7554 17.5 16.8016 17.1049 16.0983 16.4017C15.3951 15.6984 15 14.7446 15 13.75V11.25ZM18.75 10C18.4185 10 18.1005 10.1317 17.8661 10.3661C17.6317 10.6005 17.5 10.9185 17.5 11.25V13.75C17.5 14.0815 17.6317 14.3995 17.8661 14.6339C18.1005 14.8683 18.4185 15 18.75 15H21.25C21.5815 15 21.8995 14.8683 22.1339 14.6339C22.3683 14.3995 22.5 14.0815 22.5 13.75V11.25C22.5 10.9185 22.3683 10.6005 22.1339 10.3661C21.8995 10.1317 21.5815 10 21.25 10H18.75Z" fill="#EAB308"/>
<path d="M15.0001 11.25H4.66506C4.3899 10.7734 3.96515 10.4009 3.45671 10.1903C2.94826 9.9797 2.38454 9.94275 1.85295 10.0852C1.32137 10.2276 0.85164 10.5415 0.516617 10.9781C0.181594 11.4147 0 11.9497 0 12.5C0 13.0503 0.181594 13.5853 0.516617 14.0219C0.85164 14.4585 1.32137 14.7724 1.85295 14.9148C2.38454 15.0573 2.94826 15.0203 3.45671 14.8097C3.96515 14.5991 4.3899 14.2266 4.66506 13.75H11.3351C8.11564 15.7825 5.70972 18.8784 4.53506 22.5H6.25006C6.55756 22.5 6.86006 22.5375 7.14506 22.6075C7.8375 20.7949 8.90462 19.1487 10.2767 17.7766C11.6488 16.4046 13.2949 15.3374 15.1076 14.645C15.0359 14.3521 14.9999 14.0516 15.0001 13.75V11.25ZM24.8926 14.645C24.9643 14.3521 25.0003 14.0516 25.0001 13.75V11.25H35.3351C35.6102 10.7734 36.035 10.4009 36.5434 10.1903C37.0519 9.9797 37.6156 9.94275 38.1472 10.0852C38.6788 10.2276 39.1485 10.5415 39.4835 10.9781C39.8185 11.4147 40.0001 11.9497 40.0001 12.5C40.0001 13.0503 39.8185 13.5853 39.4835 14.0219C39.1485 14.4585 38.6788 14.7724 38.1472 14.9148C37.6156 15.0573 37.0519 15.0203 36.5434 14.8097C36.035 14.5991 35.6102 14.2266 35.3351 13.75H28.6651C31.8845 15.7825 34.2904 18.8784 35.4651 22.5H33.7501C33.4426 22.5 33.1426 22.5375 32.8551 22.6075C32.1626 20.7949 31.0955 19.1487 29.7234 17.7766C28.3514 16.4046 26.7052 15.3374 24.8926 14.645Z" fill="#EAB308"/>
</g>
<defs>
<clipPath id="clip0_3_81">
<rect width="40" height="40" fill="white"/>
</clipPath>
</defs>
</svg>
